<svg width="1600" height="900" viewBox="0 0 1600 900" fill="none" xmlns="http://www.w3.org/2000/svg">
  <defs>
    <linearGradient id="bg" x1="172" y1="80" x2="1414" y2="818" gradientUnits="userSpaceOnUse">
      <stop stop-color="#FFF8E8"/>
      <stop offset="0.52" stop-color="#F7E9D7"/>
      <stop offset="1" stop-color="#E8D8C3"/>
    </linearGradient>
    <linearGradient id="ink" x1="220" y1="178" x2="1381" y2="713" gradientUnits="userSpaceOnUse">
      <stop stop-color="#111111"/>
      <stop offset="0.47" stop-color="#243B5A"/>
      <stop offset="1" stop-color="#0E7490"/>
    </linearGradient>
    <linearGradient id="warm" x1="428" y1="144" x2="1114" y2="753" gradientUnits="userSpaceOnUse">
      <stop stop-color="#F97316"/>
      <stop offset="1" stop-color="#FB7185"/>
    </linearGradient>
    <filter id="blur" x="0" y="0" width="1600" height="900" filterUnits="userSpaceOnUse" color-interpolation-filters="sRGB">
      <feGaussianBlur stdDeviation="40"/>
    </filter>
    <filter id="shadow" x="124" y="84" width="1352" height="732" filterUnits="userSpaceOnUse" color-interpolation-filters="sRGB">
      <feOffset dy="18"/>
      <feGaussianBlur stdDeviation="24"/>
      <feColorMatrix type="matrix" values="0 0 0 0 0.07 0 0 0 0 0.08 0 0 0 0 0.12 0 0 0 0.18 0"/>
      <feBlend in2="SourceGraphic" result="shape"/>
    </filter>
    <clipPath id="panel-clip">
      <rect x="172" y="116" width="1256" height="668" rx="36"/>
    </clipPath>
  </defs>

  <rect width="1600" height="900" fill="#F4EBDD"/>

  <g filter="url(#blur)" opacity="0.65">
    <circle cx="250" cy="168" r="120" fill="#FFB36A"/>
    <circle cx="1360" cy="778" r="170" fill="#FF8A9B"/>
    <circle cx="1188" cy="164" r="110" fill="#8EC5FF"/>
  </g>

  <g filter="url(#shadow)">
    <rect x="172" y="116" width="1256" height="668" rx="36" fill="url(#bg)"/>
    <rect x="192" y="136" width="1216" height="628" rx="26" stroke="#171717" stroke-opacity="0.18" stroke-width="2"/>
  </g>

  <g clip-path="url(#panel-clip)">
    <path d="M173 588C327 466 432 437 553 463C675 489 738 602 876 613C1006 624 1089 486 1215 455C1314 431 1384 454 1429 484V785H173V588Z" fill="#FFF9EF"/>
    <path d="M173 670C263 595 352 562 457 565C564 568 649 660 758 670C885 681 956 583 1080 575C1212 566 1318 638 1429 706V785H173V670Z" fill="#F6E2C8"/>
    <path d="M173 741C311 676 435 689 577 716C675 734 794 774 936 748C1067 724 1208 644 1429 673V785H173V741Z" fill="#EBC9AA"/>

    <rect x="304" y="203" width="640" height="352" rx="30" fill="#FFFDF7" stroke="#18181B" stroke-width="16"/>
    <rect x="344" y="242" width="560" height="274" rx="12" fill="#161616"/>

    <path d="M372 272H876" stroke="#F8F4EC" stroke-width="16" stroke-linecap="round" stroke-dasharray="2 34"/>
    <path d="M401 318C446 276 486 273 525 309C564 345 606 343 648 307C691 271 735 271 775 312C815 353 850 354 889 315" stroke="url(#warm)" stroke-width="20" stroke-linecap="round"/>
    <path d="M392 395C454 448 511 449 572 398C633 347 691 349 752 405C812 460 864 456 913 410" stroke="#F7E7D1" stroke-width="18" stroke-linecap="round"/>
    <circle cx="438" cy="446" r="18" fill="#FFF8E8"/>
    <circle cx="520" cy="389" r="12" fill="#F59E0B"/>
    <circle cx="633" cy="447" r="16" fill="#FB7185"/>
    <circle cx="739" cy="378" r="14" fill="#38BDF8"/>
    <circle cx="849" cy="441" r="19" fill="#FDBA74"/>

    <g transform="rotate(-9 1100 308)">
      <rect x="997" y="190" width="234" height="236" rx="28" fill="#0F172A"/>
      <rect x="1018" y="211" width="192" height="194" rx="18" fill="#F8F1E4"/>
      <circle cx="1114" cy="308" r="56" stroke="url(#ink)" stroke-width="22"/>
      <path d="M1160 259L1196 223" stroke="#F97316" stroke-width="18" stroke-linecap="round"/>
      <path d="M1056 357L1031 382" stroke="#0EA5E9" stroke-width="18" stroke-linecap="round"/>
      <circle cx="1114" cy="308" r="15" fill="#111111"/>
    </g>

    <g transform="rotate(12 1049 560)">
      <rect x="928" y="490" width="262" height="152" rx="28" fill="#FFF7EA" stroke="#171717" stroke-width="14"/>
      <path d="M972 536C1008 497 1055 498 1091 539C1128 580 1172 579 1209 540" stroke="url(#warm)" stroke-width="18" stroke-linecap="round"/>
      <path d="M973 590H1144" stroke="#1F2937" stroke-width="14" stroke-linecap="round" stroke-dasharray="1 28"/>
    </g>

    <g transform="rotate(-13 231 622)">
      <rect x="213" y="507" width="126" height="230" rx="28" fill="#0F172A"/>
      <rect x="236" y="532" width="80" height="148" rx="14" fill="#FFF8EE"/>
      <circle cx="276" cy="708" r="9" fill="#FFF8EE"/>
      <path d="M251 562C266 547 288 547 302 562" stroke="#FB7185" stroke-width="10" stroke-linecap="round"/>
      <path d="M251 596H299" stroke="#0EA5E9" stroke-width="10" stroke-linecap="round"/>
      <path d="M251 625H289" stroke="#F59E0B" stroke-width="10" stroke-linecap="round"/>
    </g>

    <path d="M173 214C257 179 298 162 350 171C404 179 447 230 509 233C564 236 597 204 652 200C735 193 780 244 860 255C924 263 963 243 1026 205C1096 163 1145 147 1209 158C1283 170 1351 231 1429 268" stroke="#171717" stroke-opacity="0.12" stroke-width="5" stroke-dasharray="12 18"/>

    <circle cx="369" cy="165" r="16" fill="#111111"/>
    <circle cx="1314" cy="219" r="22" fill="#F97316"/>
    <circle cx="1219" cy="697" r="18" fill="#0EA5E9"/>
    <circle cx="1007" cy="169" r="10" fill="#FB7185"/>
    <circle cx="510" cy="697" r="13" fill="#111111"/>
  </g>
</svg>
